<?xml version="1.0" standalone="no"?><!DOCTYPE svg PUBLIC "-//W3C//DTD SVG 1.1//EN" "http://www.w3.org/Graphics/SVG/1.1/DTD/svg11.dtd"><svg t="1604773973597" class="icon" viewBox="0 0 1024 1024" version="1.1" xmlns="http://www.w3.org/2000/svg" p-id="6002" xmlns:xlink="http://www.w3.org/1999/xlink" width="100" height="100"><defs><style type="text/css">@font-face { font-weight: 400; font-style: normal; font-family: Inter-Loom; src: url("https://cdn.loom.com/assets/fonts/inter/Inter-UI-Regular.woff2") format("woff2"); }
@font-face { font-weight: 400; font-style: italic; font-family: Inter-Loom; src: url("https://cdn.loom.com/assets/fonts/inter/Inter-UI-Italic.woff2") format("woff2"); }
@font-face { font-weight: 500; font-style: normal; font-family: Inter-Loom; src: url("https://cdn.loom.com/assets/fonts/inter/Inter-UI-Medium.woff2") format("woff2"); }
@font-face { font-weight: 500; font-style: italic; font-family: Inter-Loom; src: url("https://cdn.loom.com/assets/fonts/inter/Inter-UI-MediumItalic.woff2") format("woff2"); }
@font-face { font-weight: 700; font-style: normal; font-family: Inter-Loom; src: url("https://cdn.loom.com/assets/fonts/inter/Inter-UI-Bold.woff2") format("woff2"); }
@font-face { font-weight: 700; font-style: italic; font-family: Inter-Loom; src: url("https://cdn.loom.com/assets/fonts/inter/Inter-UI-BoldItalic.woff2") format("woff2"); }
@font-face { font-weight: 900; font-style: normal; font-family: Inter-Loom; src: url("https://cdn.loom.com/assets/fonts/inter/Inter-UI-Black.woff2") format("woff2"); }
@font-face { font-weight: 900; font-style: italic; font-family: Inter-Loom; src: url("https://cdn.loom.com/assets/fonts/inter/Inter-UI-BlackItalic.woff2") format("woff2"); }
</style></defs><path d="M662.908 135c1.129 0.013 2.242 0.09 3.337 0.229 138.161 5.047 223.418 94.21 223.418 235.523v282.419c0 133.862-76.869 221-202.907 233.777-10.66 1.08-133.673 1.63-145.02 1.63-15.938 0-28.912-12.79-29.101-28.692 0.187-15.959 13.107-28.85 29.1-29.037 9.658 0 130.952-0.446 139.875-1.332 97.027-9.632 150.197-71.246 150.197-176.346V370.752c0-114.765-63.399-178.024-178.071-178.024h-283.81c-114.671 0-178.07 63.26-178.07 178.024v282.419c0 114.765 63.399 177.678 178.07 177.678 15.995 0.187 28.915 13.078 29.102 29.037-0.19 15.902-13.163 28.691-29.101 28.691C224.42 888.577 134 798.356 134 653.171V370.752c0-76.157 24.762-137.167 69.221-178.029l-12.12 0.005c-1.352 0.016 3.495-0.062 12.371-0.233C243.96 155.416 300.71 135 369.927 135z" fill="#61dafb" p-id="6003"></path><path d="M632.79 707.87a30.849 30.849 0 0 0 19.4-11.061l110.862-142.765c6.802-12.4 3.538-27.897-7.692-36.517-11.23-8.619-27.078-7.792-37.346 1.95l-93.539 119.258-106.358-83.308a29.148 29.148 0 0 0-40.88 5.185L363.951 707.87c-9.641 12.632-7.326 30.648 5.197 40.445a28.802 28.802 0 0 0 21.499 5.524 28.765 28.765 0 0 0 19.034-11.4L505.3 618.34l106.358 83.308a29.146 29.146 0 0 0 21.133 6.222zM357.855 496.839c41.228 0 78.389-24.8 94.133-62.818 15.745-38.019 6.967-81.758-22.235-110.796-29.202-29.039-73.068-37.648-111.116-21.809-38.05 15.84-62.776 53.003-62.636 94.14 0.191 55.993 45.737 101.283 101.854 101.283z m0-145.185c24.3 0 43.998 19.655 43.998 43.901 0 24.246-19.698 43.901-43.998 43.901-24.3 0-43.998-19.655-43.998-43.9 0-24.247 19.699-43.902 43.998-43.902z" fill="#61dafb" p-id="6004"></path></svg>